<svg width="118" height="94" viewBox="0 0 118 94" fill="none" xmlns="http://www.w3.org/2000/svg">
<path d="M1.6 45.168C1.6 40.048 3.392 35.824 6.976 32.496C10.56 29.168 14.656 27.504 19.264 27.504C23.872 27.504 27.9467 29.168 31.488 32.496C35.0293 35.7813 36.8 39.984 36.8 45.104C36.8 48.6453 35.8827 51.8027 34.048 54.576C32.2133 57.3067 29.9733 59.3333 27.328 60.656C24.7253 61.936 22.016 62.576 19.2 62.576C16.384 62.576 13.6533 61.8933 11.008 60.528C8.36267 59.12 6.12267 57.072 4.288 54.384C2.496 51.6533 1.6 48.5813 1.6 45.168ZM14.976 49.776C16.3413 50.8 17.728 51.312 19.136 51.312C20.544 51.312 21.952 50.7787 23.36 49.712C24.768 48.6453 25.472 47.0667 25.472 44.976C25.472 42.8853 24.8107 41.328 23.488 40.304C22.1653 39.28 20.736 38.768 19.2 38.768C17.664 38.768 16.2347 39.3013 14.912 40.368C13.5893 41.4347 12.928 43.0133 12.928 45.104C12.928 47.152 13.6107 48.7093 14.976 49.776ZM78.981 28.528C81.7117 29.7227 83.077 31.1947 83.077 32.944C83.077 33.6693 82.7357 34.8427 82.053 36.464C81.3703 38.0427 80.7943 39.4293 80.325 40.624L73.285 57.776C72.645 59.6533 71.5783 60.976 70.085 61.744C69.445 62.0427 68.6343 62.192 67.653 62.192C66.6717 62.192 65.7117 61.8293 64.773 61.104C63.877 60.336 63.2797 59.568 62.981 58.8L62.469 57.712C62.1277 56.8587 60.869 53.5307 58.693 47.728C58.2663 48.752 57.6263 50.4373 56.773 52.784C55.9623 55.088 55.429 56.5387 55.173 57.136C54.9597 57.6907 54.8103 58.0747 54.725 58.288C54.6823 58.4587 54.5117 58.8 54.213 59.312C53.9143 59.824 53.573 60.272 53.189 60.656C52.165 61.68 50.9917 62.192 49.669 62.192C48.3463 62.192 47.237 61.8293 46.341 61.104C45.445 60.336 44.8477 59.568 44.549 58.8L34.885 35.248C34.4583 33.968 34.245 33.136 34.245 32.752C34.245 31.0453 35.461 29.7013 37.893 28.72C39.2583 28.1653 40.3677 27.888 41.221 27.888C42.0743 27.888 42.757 28.08 43.269 28.464C43.8237 28.8053 44.2077 29.168 44.421 29.552C44.6343 29.8933 44.805 30.256 44.933 30.64C45.6583 32.3467 47.173 36.3573 49.477 42.672L53.253 32.304C53.509 31.4507 53.9783 30.704 54.661 30.064C55.8983 28.8267 57.157 28.208 58.437 28.208C59.717 28.208 60.805 28.5493 61.701 29.232C62.6397 29.9147 63.2797 30.5973 63.621 31.28L64.133 32.368C66.2663 38.3413 67.525 41.7547 67.909 42.608L71.813 31.984C72.837 29.2533 74.373 27.888 76.421 27.888C77.2317 27.888 78.085 28.1013 78.981 28.528ZM80.545 45.168C80.545 40.048 82.337 35.824 85.921 32.496C89.505 29.168 93.601 27.504 98.209 27.504C102.817 27.504 106.892 29.168 110.433 32.496C113.974 35.7813 115.745 39.984 115.745 45.104C115.745 48.6453 114.828 51.8027 112.993 54.576C111.158 57.3067 108.918 59.3333 106.273 60.656C103.67 61.936 100.961 62.576 98.145 62.576C95.329 62.576 92.5983 61.8933 89.953 60.528C87.3077 59.12 85.0677 57.072 83.233 54.384C81.441 51.6533 80.545 48.5813 80.545 45.168ZM93.921 49.776C95.2863 50.8 96.673 51.312 98.081 51.312C99.489 51.312 100.897 50.7787 102.305 49.712C103.713 48.6453 104.417 47.0667 104.417 44.976C104.417 42.8853 103.756 41.328 102.433 40.304C101.11 39.28 99.681 38.768 98.145 38.768C96.609 38.768 95.1797 39.3013 93.857 40.368C92.5343 41.4347 91.873 43.0133 91.873 45.104C91.873 47.152 92.5557 48.7093 93.921 49.776Z" fill="white"/>
<path d="M32.976 86.416C32.368 87.216 31.4 87.616 30.072 87.616C28.744 87.616 27.496 87.008 26.328 85.792C25.176 84.56 24.6 83.128 24.6 81.496C24.6 79.864 25.184 78.432 26.352 77.2C27.52 75.968 28.8 75.352 30.192 75.352C30.736 75.352 31.232 75.456 31.68 75.664C32.128 75.856 32.432 76.04 32.592 76.216C32.768 76.376 32.904 76.528 33 76.672C33.048 76.224 33.208 75.888 33.48 75.664C33.768 75.424 34.224 75.304 34.848 75.304C35.472 75.304 35.928 75.352 36.216 75.448C36.504 75.544 36.704 75.712 36.816 75.952C36.944 76.176 37.016 76.376 37.032 76.552C37.064 76.728 37.08 77 37.08 77.368V87.304C37.08 89.144 36.44 90.624 35.16 91.744C33.88 92.88 32.44 93.448 30.84 93.448C29.624 93.448 28.464 93.152 27.36 92.56C26.256 91.968 25.704 91.432 25.704 90.952C25.704 90.328 25.944 89.776 26.424 89.296C26.728 88.96 26.96 88.728 27.12 88.6C27.296 88.472 27.496 88.408 27.72 88.408C27.944 88.408 28.176 88.504 28.416 88.696C29.184 89.288 30.016 89.584 30.912 89.584C31.52 89.584 32.016 89.344 32.4 88.864C32.784 88.384 32.976 87.808 32.976 87.136V86.416ZM28.704 81.52C28.704 82.032 28.904 82.496 29.304 82.912C29.72 83.328 30.216 83.536 30.792 83.536C31.384 83.536 31.872 83.328 32.256 82.912C32.64 82.48 32.832 82.016 32.832 81.52C32.832 81.008 32.648 80.536 32.28 80.104C31.912 79.656 31.416 79.432 30.792 79.432C30.168 79.432 29.664 79.648 29.28 80.08C28.896 80.512 28.704 80.992 28.704 81.52ZM46.0071 76.696C46.1031 75.8 46.7351 75.352 47.9031 75.352C48.5271 75.352 48.9911 75.4 49.2951 75.496C49.5991 75.592 49.8071 75.76 49.9191 76C50.0471 76.24 50.1191 76.456 50.1351 76.648C50.1671 76.824 50.1831 77.096 50.1831 77.464V85.864C50.1831 86.232 50.1671 86.512 50.1351 86.704C50.1191 86.88 50.0551 87.088 49.9431 87.328C49.7191 87.744 49.1671 87.952 48.2871 87.952C47.4231 87.952 46.8391 87.848 46.5351 87.64C46.2471 87.416 46.0791 87.096 46.0311 86.68C45.4391 87.528 44.4471 87.952 43.0551 87.952C41.6791 87.952 40.3991 87.32 39.2151 86.056C38.0311 84.792 37.4391 83.328 37.4391 81.664C37.4391 79.984 38.0311 78.52 39.2151 77.272C40.4151 76.008 41.7271 75.376 43.1511 75.376C43.6951 75.376 44.1911 75.472 44.6391 75.664C45.0871 75.856 45.3991 76.04 45.5751 76.216C45.7511 76.376 45.8951 76.536 46.0071 76.696ZM41.6391 81.688C41.6391 82.216 41.8471 82.696 42.2631 83.128C42.6791 83.544 43.1831 83.752 43.7751 83.752C44.3671 83.752 44.8551 83.536 45.2391 83.104C45.6391 82.672 45.8391 82.2 45.8391 81.688C45.8391 81.16 45.6471 80.672 45.2631 80.224C44.8951 79.776 44.3911 79.552 43.7511 79.552C43.1271 79.552 42.6151 79.776 42.2151 80.224C41.8311 80.672 41.6391 81.16 41.6391 81.688ZM55.0239 77.032C55.7759 75.896 56.6799 75.328 57.7359 75.328C59.3679 75.328 60.5839 76.024 61.3839 77.416C61.5599 77.176 61.7679 76.928 62.0079 76.672C62.2639 76.4 62.6639 76.112 63.2079 75.808C63.7519 75.488 64.3119 75.328 64.8879 75.328C66.1679 75.328 67.2399 75.824 68.1039 76.816C68.9679 77.792 69.3999 79.416 69.3999 81.688V85.888C69.3999 86.256 69.3839 86.536 69.3519 86.728C69.3359 86.904 69.2639 87.112 69.1359 87.352C68.9279 87.784 68.3119 88 67.2879 88C66.2799 88 65.6639 87.776 65.4399 87.328C65.3279 87.088 65.2559 86.88 65.2239 86.704C65.2079 86.512 65.1999 86.232 65.1999 85.864V81.664C65.1999 80.272 64.7039 79.576 63.7119 79.576C63.1519 79.576 62.7679 79.76 62.5599 80.128C62.3679 80.496 62.2719 81.016 62.2719 81.688V85.888C62.2719 86.272 62.2559 86.552 62.2239 86.728C62.2079 86.904 62.1359 87.112 62.0079 87.352C61.7839 87.784 61.1599 88 60.1359 88C59.1279 88 58.5119 87.776 58.2879 87.328C58.1759 87.088 58.1039 86.88 58.0719 86.704C58.0559 86.512 58.0479 86.232 58.0479 85.864V81.664C58.0479 80.272 57.5519 79.576 56.5599 79.576C55.5999 79.576 55.1199 80.272 55.1199 81.664V85.912C55.1199 86.28 55.1039 86.56 55.0719 86.752C55.0559 86.928 54.9839 87.136 54.8559 87.376C54.6159 87.792 53.9919 88 52.9839 88C51.9759 88 51.3599 87.784 51.1359 87.352C51.0239 87.112 50.9519 86.904 50.9199 86.728C50.9039 86.552 50.8959 86.272 50.8959 85.888V77.44C50.8959 77.072 50.9039 76.8 50.9199 76.624C50.9519 76.432 51.0319 76.224 51.1599 76C51.3999 75.568 51.9679 75.352 52.8639 75.352C53.7599 75.352 54.3439 75.496 54.6159 75.784C54.8879 76.072 55.0239 76.488 55.0239 77.032ZM82.302 80.176C82.302 81.152 82.054 81.88 81.558 82.36C81.078 82.824 80.542 83.056 79.95 83.056H74.262C74.262 83.504 74.526 83.88 75.054 84.184C75.582 84.488 76.11 84.64 76.638 84.64C77.566 84.64 78.294 84.544 78.822 84.352L79.086 84.256C79.47 84.08 79.79 83.992 80.046 83.992C80.558 83.992 80.998 84.352 81.366 85.072C81.574 85.504 81.678 85.872 81.678 86.176C81.678 87.6 79.974 88.312 76.566 88.312C75.382 88.312 74.326 88.112 73.398 87.712C72.486 87.296 71.774 86.752 71.262 86.08C70.254 84.784 69.75 83.336 69.75 81.736C69.75 79.72 70.398 78.112 71.694 76.912C73.006 75.696 74.638 75.088 76.59 75.088C78.814 75.088 80.446 75.872 81.486 77.44C82.03 78.272 82.302 79.184 82.302 80.176ZM77.238 80.872C77.846 80.872 78.15 80.616 78.15 80.104C78.15 79.736 78.006 79.44 77.718 79.216C77.446 78.992 77.046 78.88 76.518 78.88C76.006 78.88 75.494 79.096 74.982 79.528C74.47 79.944 74.214 80.392 74.214 80.872H77.238ZM82.7638 86.872C82.4598 86.68 82.3078 86.376 82.3078 85.96C82.3078 85.544 82.6118 84.912 83.2198 84.064C83.3958 83.792 83.6758 83.656 84.0598 83.656C84.4598 83.656 84.9958 83.856 85.6678 84.256C86.3398 84.64 86.9478 84.832 87.4918 84.832C88.4678 84.832 88.9558 84.64 88.9558 84.256C88.9558 83.952 88.4198 83.728 87.3478 83.584C86.3398 83.44 85.3398 83.064 84.3478 82.456C83.8838 82.168 83.4998 81.72 83.1958 81.112C82.8918 80.488 82.7398 79.752 82.7398 78.904C82.7398 76.376 84.4758 75.112 87.9478 75.112C89.0838 75.112 90.2518 75.384 91.4518 75.928C92.0118 76.184 92.2918 76.504 92.2918 76.888C92.2918 77.272 92.1158 77.744 91.7638 78.304C91.4118 78.864 91.0518 79.144 90.6838 79.144C90.4918 79.144 90.1318 79.024 89.6038 78.784C89.0918 78.544 88.5318 78.424 87.9238 78.424C86.9798 78.424 86.5078 78.6 86.5078 78.952C86.5078 79.432 87.0518 79.744 88.1398 79.888C89.1958 80 90.2198 80.304 91.2118 80.8C91.6758 81.024 92.0598 81.416 92.3638 81.976C92.6838 82.52 92.8438 83.208 92.8438 84.04C92.8438 84.872 92.6838 85.584 92.3638 86.176C92.0598 86.752 91.6278 87.184 91.0678 87.472C90.0438 87.968 88.7558 88.216 87.2038 88.216C85.6678 88.216 84.1878 87.768 82.7638 86.872Z" fill="white"/>
</svg>
