<svg width="256" height="256" viewBox="0 0 256 256" fill="none" xmlns="http://www.w3.org/2000/svg">
<rect width="256" height="256" fill="#E76144"/>
<path d="M70.6 116.168C70.6 111.048 72.392 106.824 75.976 103.496C79.56 100.168 83.656 98.504 88.264 98.504C92.872 98.504 96.9467 100.168 100.488 103.496C104.029 106.781 105.8 110.984 105.8 116.104C105.8 119.645 104.883 122.803 103.048 125.576C101.213 128.307 98.9733 130.333 96.328 131.656C93.7253 132.936 91.016 133.576 88.2 133.576C85.384 133.576 82.6533 132.893 80.008 131.528C77.3627 130.12 75.1227 128.072 73.288 125.384C71.496 122.653 70.6 119.581 70.6 116.168ZM83.976 120.776C85.3413 121.8 86.728 122.312 88.136 122.312C89.544 122.312 90.952 121.779 92.36 120.712C93.768 119.645 94.472 118.067 94.472 115.976C94.472 113.885 93.8107 112.328 92.488 111.304C91.1653 110.28 89.736 109.768 88.2 109.768C86.664 109.768 85.2347 110.301 83.912 111.368C82.5893 112.435 81.928 114.013 81.928 116.104C81.928 118.152 82.6107 119.709 83.976 120.776ZM147.981 99.528C150.712 100.723 152.077 102.195 152.077 103.944C152.077 104.669 151.736 105.843 151.053 107.464C150.37 109.043 149.794 110.429 149.325 111.624L142.285 128.776C141.645 130.653 140.578 131.976 139.085 132.744C138.445 133.043 137.634 133.192 136.653 133.192C135.672 133.192 134.712 132.829 133.773 132.104C132.877 131.336 132.28 130.568 131.981 129.8L131.469 128.712C131.128 127.859 129.869 124.531 127.693 118.728C127.266 119.752 126.626 121.437 125.773 123.784C124.962 126.088 124.429 127.539 124.173 128.136C123.96 128.691 123.81 129.075 123.725 129.288C123.682 129.459 123.512 129.8 123.213 130.312C122.914 130.824 122.573 131.272 122.189 131.656C121.165 132.68 119.992 133.192 118.669 133.192C117.346 133.192 116.237 132.829 115.341 132.104C114.445 131.336 113.848 130.568 113.549 129.8L103.885 106.248C103.458 104.968 103.245 104.136 103.245 103.752C103.245 102.045 104.461 100.701 106.893 99.72C108.258 99.1653 109.368 98.888 110.221 98.888C111.074 98.888 111.757 99.08 112.269 99.464C112.824 99.8053 113.208 100.168 113.421 100.552C113.634 100.893 113.805 101.256 113.933 101.64C114.658 103.347 116.173 107.357 118.477 113.672L122.253 103.304C122.509 102.451 122.978 101.704 123.661 101.064C124.898 99.8267 126.157 99.208 127.437 99.208C128.717 99.208 129.805 99.5493 130.701 100.232C131.64 100.915 132.28 101.597 132.621 102.28L133.133 103.368C135.266 109.341 136.525 112.755 136.909 113.608L140.813 102.984C141.837 100.253 143.373 98.888 145.421 98.888C146.232 98.888 147.085 99.1013 147.981 99.528ZM149.545 116.168C149.545 111.048 151.337 106.824 154.921 103.496C158.505 100.168 162.601 98.504 167.209 98.504C171.817 98.504 175.892 100.168 179.433 103.496C182.974 106.781 184.745 110.984 184.745 116.104C184.745 119.645 183.828 122.803 181.993 125.576C180.158 128.307 177.918 130.333 175.273 131.656C172.67 132.936 169.961 133.576 167.145 133.576C164.329 133.576 161.598 132.893 158.953 131.528C156.308 130.12 154.068 128.072 152.233 125.384C150.441 122.653 149.545 119.581 149.545 116.168ZM162.921 120.776C164.286 121.8 165.673 122.312 167.081 122.312C168.489 122.312 169.897 121.779 171.305 120.712C172.713 119.645 173.417 118.067 173.417 115.976C173.417 113.885 172.756 112.328 171.433 111.304C170.11 110.28 168.681 109.768 167.145 109.768C165.609 109.768 164.18 110.301 162.857 111.368C161.534 112.435 160.873 114.013 160.873 116.104C160.873 118.152 161.556 119.709 162.921 120.776Z" fill="white"/>
<path d="M101.976 157.416C101.368 158.216 100.4 158.616 99.072 158.616C97.744 158.616 96.496 158.008 95.328 156.792C94.176 155.56 93.6 154.128 93.6 152.496C93.6 150.864 94.184 149.432 95.352 148.2C96.52 146.968 97.8 146.352 99.192 146.352C99.736 146.352 100.232 146.456 100.68 146.664C101.128 146.856 101.432 147.04 101.592 147.216C101.768 147.376 101.904 147.528 102 147.672C102.048 147.224 102.208 146.888 102.48 146.664C102.768 146.424 103.224 146.304 103.848 146.304C104.472 146.304 104.928 146.352 105.216 146.448C105.504 146.544 105.704 146.712 105.816 146.952C105.944 147.176 106.016 147.376 106.032 147.552C106.064 147.728 106.08 148 106.08 148.368V158.304C106.08 160.144 105.44 161.624 104.16 162.744C102.88 163.88 101.44 164.448 99.84 164.448C98.624 164.448 97.464 164.152 96.36 163.56C95.256 162.968 94.704 162.432 94.704 161.952C94.704 161.328 94.944 160.776 95.424 160.296C95.728 159.96 95.96 159.728 96.12 159.6C96.296 159.472 96.496 159.408 96.72 159.408C96.944 159.408 97.176 159.504 97.416 159.696C98.184 160.288 99.016 160.584 99.912 160.584C100.52 160.584 101.016 160.344 101.4 159.864C101.784 159.384 101.976 158.808 101.976 158.136V157.416ZM97.704 152.52C97.704 153.032 97.904 153.496 98.304 153.912C98.72 154.328 99.216 154.536 99.792 154.536C100.384 154.536 100.872 154.328 101.256 153.912C101.64 153.48 101.832 153.016 101.832 152.52C101.832 152.008 101.648 151.536 101.28 151.104C100.912 150.656 100.416 150.432 99.792 150.432C99.168 150.432 98.664 150.648 98.28 151.08C97.896 151.512 97.704 151.992 97.704 152.52ZM115.007 147.696C115.103 146.8 115.735 146.352 116.903 146.352C117.527 146.352 117.991 146.4 118.295 146.496C118.599 146.592 118.807 146.76 118.919 147C119.047 147.24 119.119 147.456 119.135 147.648C119.167 147.824 119.183 148.096 119.183 148.464V156.864C119.183 157.232 119.167 157.512 119.135 157.704C119.119 157.88 119.055 158.088 118.943 158.328C118.719 158.744 118.167 158.952 117.287 158.952C116.423 158.952 115.839 158.848 115.535 158.64C115.247 158.416 115.079 158.096 115.031 157.68C114.439 158.528 113.447 158.952 112.055 158.952C110.679 158.952 109.399 158.32 108.215 157.056C107.031 155.792 106.439 154.328 106.439 152.664C106.439 150.984 107.031 149.52 108.215 148.272C109.415 147.008 110.727 146.376 112.151 146.376C112.695 146.376 113.191 146.472 113.639 146.664C114.087 146.856 114.399 147.04 114.575 147.216C114.751 147.376 114.895 147.536 115.007 147.696ZM110.639 152.688C110.639 153.216 110.847 153.696 111.263 154.128C111.679 154.544 112.183 154.752 112.775 154.752C113.367 154.752 113.855 154.536 114.239 154.104C114.639 153.672 114.839 153.2 114.839 152.688C114.839 152.16 114.647 151.672 114.263 151.224C113.895 150.776 113.391 150.552 112.751 150.552C112.127 150.552 111.615 150.776 111.215 151.224C110.831 151.672 110.639 152.16 110.639 152.688ZM124.024 148.032C124.776 146.896 125.68 146.328 126.736 146.328C128.368 146.328 129.584 147.024 130.384 148.416C130.56 148.176 130.768 147.928 131.008 147.672C131.264 147.4 131.664 147.112 132.208 146.808C132.752 146.488 133.312 146.328 133.888 146.328C135.168 146.328 136.24 146.824 137.104 147.816C137.968 148.792 138.4 150.416 138.4 152.688V156.888C138.4 157.256 138.384 157.536 138.352 157.728C138.336 157.904 138.264 158.112 138.136 158.352C137.928 158.784 137.312 159 136.288 159C135.28 159 134.664 158.776 134.44 158.328C134.328 158.088 134.256 157.88 134.224 157.704C134.208 157.512 134.2 157.232 134.2 156.864V152.664C134.2 151.272 133.704 150.576 132.712 150.576C132.152 150.576 131.768 150.76 131.56 151.128C131.368 151.496 131.272 152.016 131.272 152.688V156.888C131.272 157.272 131.256 157.552 131.224 157.728C131.208 157.904 131.136 158.112 131.008 158.352C130.784 158.784 130.16 159 129.136 159C128.128 159 127.512 158.776 127.288 158.328C127.176 158.088 127.104 157.88 127.072 157.704C127.056 157.512 127.048 157.232 127.048 156.864V152.664C127.048 151.272 126.552 150.576 125.56 150.576C124.6 150.576 124.12 151.272 124.12 152.664V156.912C124.12 157.28 124.104 157.56 124.072 157.752C124.056 157.928 123.984 158.136 123.856 158.376C123.616 158.792 122.992 159 121.984 159C120.976 159 120.36 158.784 120.136 158.352C120.024 158.112 119.952 157.904 119.92 157.728C119.904 157.552 119.896 157.272 119.896 156.888V148.44C119.896 148.072 119.904 147.8 119.92 147.624C119.952 147.432 120.032 147.224 120.16 147C120.4 146.568 120.968 146.352 121.864 146.352C122.76 146.352 123.344 146.496 123.616 146.784C123.888 147.072 124.024 147.488 124.024 148.032ZM151.302 151.176C151.302 152.152 151.054 152.88 150.558 153.36C150.078 153.824 149.542 154.056 148.95 154.056H143.262C143.262 154.504 143.526 154.88 144.054 155.184C144.582 155.488 145.11 155.64 145.638 155.64C146.566 155.64 147.294 155.544 147.822 155.352L148.086 155.256C148.47 155.08 148.79 154.992 149.046 154.992C149.558 154.992 149.998 155.352 150.366 156.072C150.574 156.504 150.678 156.872 150.678 157.176C150.678 158.6 148.974 159.312 145.566 159.312C144.382 159.312 143.326 159.112 142.398 158.712C141.486 158.296 140.774 157.752 140.262 157.08C139.254 155.784 138.75 154.336 138.75 152.736C138.75 150.72 139.398 149.112 140.694 147.912C142.006 146.696 143.638 146.088 145.59 146.088C147.814 146.088 149.446 146.872 150.486 148.44C151.03 149.272 151.302 150.184 151.302 151.176ZM146.238 151.872C146.846 151.872 147.15 151.616 147.15 151.104C147.15 150.736 147.006 150.44 146.718 150.216C146.446 149.992 146.046 149.88 145.518 149.88C145.006 149.88 144.494 150.096 143.982 150.528C143.47 150.944 143.214 151.392 143.214 151.872H146.238ZM151.764 157.872C151.46 157.68 151.308 157.376 151.308 156.96C151.308 156.544 151.612 155.912 152.22 155.064C152.396 154.792 152.676 154.656 153.06 154.656C153.46 154.656 153.996 154.856 154.668 155.256C155.34 155.64 155.948 155.832 156.492 155.832C157.468 155.832 157.956 155.64 157.956 155.256C157.956 154.952 157.42 154.728 156.348 154.584C155.34 154.44 154.34 154.064 153.348 153.456C152.884 153.168 152.5 152.72 152.196 152.112C151.892 151.488 151.74 150.752 151.74 149.904C151.74 147.376 153.476 146.112 156.948 146.112C158.084 146.112 159.252 146.384 160.452 146.928C161.012 147.184 161.292 147.504 161.292 147.888C161.292 148.272 161.116 148.744 160.764 149.304C160.412 149.864 160.052 150.144 159.684 150.144C159.492 150.144 159.132 150.024 158.604 149.784C158.092 149.544 157.532 149.424 156.924 149.424C155.98 149.424 155.508 149.6 155.508 149.952C155.508 150.432 156.052 150.744 157.14 150.888C158.196 151 159.22 151.304 160.212 151.8C160.676 152.024 161.06 152.416 161.364 152.976C161.684 153.52 161.844 154.208 161.844 155.04C161.844 155.872 161.684 156.584 161.364 157.176C161.06 157.752 160.628 158.184 160.068 158.472C159.044 158.968 157.756 159.216 156.204 159.216C154.668 159.216 153.188 158.768 151.764 157.872Z" fill="white"/>
</svg>
